<svg width="205" height="45" viewBox="0 0 205 45" fill="none" xmlns="http://www.w3.org/2000/svg">
<path d="M28.8074 26.4971C28.741 20.7077 24.0047 16.0361 18.1672 16.0361C18.1603 16.0361 18.1512 16.0361 18.1443 16.0361C18.0276 16.0384 17.9337 16.1295 17.9337 16.241C17.9337 16.2433 17.9337 16.2433 17.9337 16.2456V26.4971V26.5267V33.5729H17.936C18.0207 39.3463 22.7479 44.002 28.5739 44.002C28.5808 44.002 28.5876 44.002 28.5968 44.002C28.7135 43.9997 28.8074 43.9087 28.8074 43.7971V33.5751H28.812V26.4994H28.8074V26.4971Z" fill="#FFFFFF"/>
<path d="M10.8737 10.4724C10.8119 4.67843 6.07324 0 0.233498 0C0.226631 0 0.217474 0 0.210606 0C0.0938571 0.00227661 0.0022892 0.0910643 0 0.202618V10.4724V10.4906V29.539H0.0022892C0.0869895 35.3125 4.81418 39.9681 10.6402 39.9681C10.6471 39.9681 10.6539 39.9681 10.6608 39.9681C10.7775 39.9658 10.8737 39.8748 10.8737 39.7632C10.8737 39.761 10.8737 39.761 10.8737 39.7587V29.5413H10.8783V10.4724H10.8737Z" fill="#FFFFFF"/>
<path d="M40.2351 43.6246C39.6674 43.6246 39.1821 43.4174 38.7746 43.0008C38.3671 42.5842 38.1656 42.0947 38.1656 41.5301V18.1584C38.1656 17.5961 38.3694 17.1044 38.7746 16.6878C39.1821 16.2711 39.6674 16.064 40.2351 16.064H40.9745C41.5399 16.064 42.0344 16.2734 42.4533 16.6878C42.8722 17.1044 43.0806 17.5938 43.0806 18.1584V26.6843C43.0806 26.7094 43.092 26.7208 43.1172 26.7208C43.1424 26.7208 43.1653 26.7094 43.1904 26.6843C44.9142 24.9928 46.8119 24.1482 48.8814 24.1482C51.1225 24.1482 52.7478 24.7856 53.7597 26.0583C54.7692 27.3332 55.2751 29.5119 55.2751 32.599V41.5278C55.2751 42.0924 55.0645 42.5819 54.6479 42.9985C54.2289 43.4151 53.7368 43.6223 53.169 43.6223H52.5784C52.0107 43.6223 51.5185 43.4151 51.0996 42.9985C50.6807 42.5819 50.4724 42.0924 50.4724 41.5278V33.332C50.4724 31.2011 50.2435 29.7919 49.7879 29.1067C49.3324 28.4214 48.4762 28.0776 47.2194 28.0776C46.2328 28.0776 45.2988 28.5193 44.4106 29.4003C43.5247 30.2814 43.0806 31.2262 43.0806 32.2302V41.5278C43.0806 42.0924 42.8699 42.5819 42.4533 42.9985C42.0344 43.4151 41.5422 43.6223 40.9745 43.6223H40.2351V43.6246Z" fill="#FFFFFF"/>
<path d="M66.9499 43.9935C64.782 43.9935 63.2048 43.3993 62.2204 42.2109C61.2338 41.0225 60.7416 39.0077 60.7416 36.1665V26.6116C60.7416 26.0492 60.9499 25.5575 61.3688 25.1409C61.7877 24.7243 62.2799 24.5171 62.8476 24.5171H63.4383C64.0037 24.5171 64.4981 24.7265 64.9171 25.1409C65.336 25.5575 65.5443 26.047 65.5443 26.6116V35.652C65.5443 37.3663 65.7778 38.5547 66.2471 39.2171C66.7141 39.8796 67.5039 40.2097 68.6118 40.2097C69.6214 40.2097 70.5645 39.7817 71.439 38.9235C72.3135 38.0652 72.7507 37.1477 72.7507 36.1665V26.6116C72.7507 26.0492 72.959 25.5575 73.378 25.1409C73.7969 24.7243 74.2891 24.5171 74.8568 24.5171H75.5962C76.1616 24.5171 76.6492 24.7265 77.0567 25.1409C77.4642 25.5575 77.6656 26.047 77.6656 26.6116V41.5302C77.6656 42.0948 77.4619 42.5843 77.0567 43.0009C76.6492 43.4175 76.1639 43.6247 75.5962 43.6247H75.1155C74.5248 43.6247 74.0258 43.422 73.6183 43.0191C73.2108 42.6138 72.9957 42.1175 72.9705 41.5302L72.9338 41.2729C72.9338 41.2479 72.9201 41.2365 72.8972 41.2365C72.872 41.2365 72.8469 41.2502 72.824 41.2729C71.1506 43.0874 69.191 43.9935 66.9499 43.9935Z" fill="#FFFFFF"/>
<path d="M85.7945 43.6246C85.2268 43.6246 84.7346 43.4174 84.3157 43.0008C83.8968 42.5842 83.6885 42.0947 83.6885 41.5301V18.1584C83.6885 17.5961 83.8968 17.1044 84.3157 16.6878C84.7346 16.2711 85.2268 16.064 85.7945 16.064H86.534C87.0994 16.064 87.5939 16.2734 88.0128 16.6878C88.4317 17.1044 88.64 17.5938 88.64 18.1584V26.4271C88.64 26.4521 88.6515 26.4635 88.6766 26.4635C88.7018 26.4635 88.7247 26.4521 88.7499 26.4271C90.35 24.9086 92.1974 24.1482 94.292 24.1482C96.6064 24.1482 98.4607 25.011 99.8525 26.739C101.244 28.4669 101.94 30.9097 101.94 34.0697C101.94 37.1317 101.212 39.5517 99.7609 41.3275C98.3073 43.1032 96.4851 43.9911 94.292 43.9911C92.0509 43.9911 90.1165 43.085 88.4912 41.2728C88.466 41.2478 88.4409 41.2364 88.418 41.2364C88.3928 41.2364 88.3813 41.2501 88.3813 41.2728L88.3447 41.5301C88.3195 42.1175 88.1043 42.6138 87.6969 43.019C87.2894 43.4242 86.7926 43.6246 86.1997 43.6246H85.7945V43.6246ZM88.5668 31.5722V36.5694C88.5668 37.5506 88.9857 38.4203 89.8235 39.1784C90.6614 39.9387 91.6595 40.3167 92.8178 40.3167C94.1226 40.3167 95.1574 39.7953 95.922 38.7549C96.6843 37.7145 97.0666 36.1527 97.0666 34.0697C97.0666 29.9057 95.6495 27.8226 92.8178 27.8226C91.6595 27.8226 90.6614 28.2028 89.8235 28.9609C88.9857 29.7213 88.5668 30.5933 88.5668 31.5722Z" fill="#FFFFFF"/>
<path d="M112.695 43.9935C110.527 43.9935 108.95 43.3993 107.966 42.2109C106.979 41.0225 106.487 39.0077 106.487 36.1665V26.6116C106.487 26.0492 106.695 25.5575 107.114 25.1409C107.533 24.7243 108.025 24.5171 108.593 24.5171H109.183C109.749 24.5171 110.243 24.7265 110.662 25.1409C111.081 25.5575 111.29 26.047 111.29 26.6116V35.652C111.29 37.3663 111.523 38.5547 111.992 39.2171C112.459 39.8796 113.249 40.2097 114.357 40.2097C115.367 40.2097 116.31 39.7817 117.184 38.9235C118.059 38.0652 118.496 37.1477 118.496 36.1665V26.6116C118.496 26.0492 118.704 25.5575 119.123 25.1409C119.542 24.7243 120.034 24.5171 120.602 24.5171H121.341C121.907 24.5171 122.394 24.7265 122.802 25.1409C123.209 25.5575 123.411 26.047 123.411 26.6116V41.5302C123.411 42.0948 123.207 42.5843 122.802 43.0009C122.394 43.4175 121.909 43.6247 121.341 43.6247H120.861C120.27 43.6247 119.771 43.422 119.364 43.0191C118.956 42.6161 118.741 42.1175 118.716 41.5302L118.679 41.2729C118.679 41.2479 118.665 41.2365 118.642 41.2365C118.617 41.2365 118.592 41.2502 118.569 41.2729C116.896 43.0874 114.936 43.9935 112.695 43.9935Z" fill="#FFFFFF"/>
<path d="M131.54 43.6246C130.972 43.6246 130.48 43.4174 130.061 43.0008C129.642 42.5842 129.434 42.0947 129.434 41.5301V18.1584C129.434 17.5961 129.642 17.1044 130.061 16.6878C130.48 16.2711 130.972 16.064 131.54 16.064H132.279C132.845 16.064 133.339 16.2734 133.758 16.6878C134.177 17.1044 134.385 17.5938 134.385 18.1584V26.4271C134.385 26.4521 134.397 26.4635 134.422 26.4635C134.447 26.4635 134.47 26.4521 134.495 26.4271C136.095 24.9086 137.943 24.1482 140.037 24.1482C142.352 24.1482 144.206 25.011 145.598 26.739C146.989 28.4669 147.685 30.9097 147.685 34.0697C147.685 37.1317 146.957 39.5517 145.506 41.3275C144.052 43.1032 142.23 43.9911 140.037 43.9911C137.796 43.9911 135.862 43.085 134.236 41.2728C134.211 41.2478 134.186 41.2364 134.163 41.2364C134.138 41.2364 134.126 41.2501 134.126 41.2728L134.09 41.5301C134.065 42.1175 133.849 42.6138 133.442 43.019C133.035 43.4242 132.538 43.6246 131.945 43.6246H131.54V43.6246ZM134.312 31.5722V36.5694C134.312 37.5506 134.731 38.4203 135.569 39.1784C136.406 39.9387 137.405 40.3167 138.563 40.3167C139.868 40.3167 140.902 39.7953 141.667 38.7549C142.429 37.7145 142.812 36.1527 142.812 34.0697C142.812 29.9057 141.395 27.8226 138.563 27.8226C137.405 27.8226 136.406 28.2028 135.569 28.9609C134.731 29.7213 134.312 30.5933 134.312 31.5722Z" fill="#FFFFFF"/>
<path d="M154.709 43.6246C154.141 43.6246 153.649 43.4174 153.23 43.0008C152.811 42.5842 152.603 42.0947 152.603 41.5301V18.1584C152.603 17.5961 152.811 17.1044 153.23 16.6878C153.649 16.2711 154.141 16.064 154.709 16.064H155.448C156.013 16.064 156.508 16.2734 156.927 16.6878C157.346 17.1044 157.554 17.5938 157.554 18.1584V26.4271C157.554 26.4521 157.566 26.4635 157.591 26.4635C157.616 26.4635 157.639 26.4521 157.664 26.4271C159.264 24.9086 161.112 24.1482 163.206 24.1482C165.521 24.1482 167.375 25.011 168.767 26.739C170.158 28.4669 170.854 30.9097 170.854 34.0697C170.854 37.1317 170.126 39.5517 168.675 41.3275C167.221 43.1032 165.399 43.9911 163.206 43.9911C160.965 43.9911 159.031 43.085 157.405 41.2728C157.38 41.2478 157.355 41.2364 157.332 41.2364C157.307 41.2364 157.295 41.2501 157.295 41.2728L157.259 41.5301C157.234 42.1175 157.018 42.6138 156.611 43.019C156.203 43.4242 155.704 43.6246 155.114 43.6246H154.709V43.6246ZM157.481 31.5722V36.5694C157.481 37.5506 157.9 38.4203 158.738 39.1784C159.575 39.9387 160.574 40.3167 161.732 40.3167C163.037 40.3167 164.071 39.7953 164.836 38.7549C165.598 37.7145 165.981 36.1527 165.981 34.0697C165.981 29.9057 164.564 27.8226 161.732 27.8226C160.574 27.8226 159.575 28.2028 158.738 28.9609C157.897 29.7213 157.481 30.5933 157.481 31.5722Z" fill="#FFFFFF"/>
<path d="M178.8 43.6246C178.233 43.6246 177.741 43.4174 177.322 43.0008C176.903 42.5842 176.694 42.0947 176.694 41.5301V18.1584C176.694 17.5961 176.903 17.1044 177.322 16.6878C177.741 16.2711 178.233 16.064 178.8 16.064H179.762C180.327 16.064 180.822 16.2734 181.241 16.6878C181.66 17.1044 181.868 17.5938 181.868 18.1584V41.5301C181.868 42.0947 181.657 42.5842 181.241 43.0008C180.822 43.4174 180.33 43.6246 179.762 43.6246H178.8V43.6246Z" fill="#FFFFFF"/>
<path d="M197.572 43.9936C194.344 43.9936 191.863 43.1558 190.125 41.4757C188.388 39.7978 187.52 37.33 187.52 34.0699C187.52 30.8371 188.296 28.3738 189.848 26.6846C191.4 24.9931 193.641 24.1484 196.574 24.1484C202.043 24.1484 204.852 27.2355 204.998 33.4097C205.023 33.997 204.813 34.4888 204.371 34.8804C203.927 35.2719 203.409 35.4677 202.819 35.4677H192.73C192.508 35.4677 192.421 35.577 192.472 35.7978C192.643 37.4393 193.193 38.6345 194.115 39.3812C195.04 40.128 196.389 40.5013 198.163 40.5013C199.271 40.5013 200.502 40.3169 201.857 39.9504C202.302 39.8274 202.714 39.9026 203.096 40.1712C203.478 40.4421 203.668 40.8087 203.668 41.2731C203.668 41.8377 203.501 42.334 203.169 42.762C202.837 43.19 202.4 43.4541 201.857 43.552C200.479 43.8457 199.051 43.9936 197.572 43.9936ZM196.649 27.5656C195.393 27.5656 194.427 27.9139 193.749 28.6129C193.071 29.3118 192.646 30.4319 192.474 31.9754C192.474 32.1712 192.572 32.2691 192.769 32.2691H200.012C200.209 32.2691 200.308 32.1712 200.308 31.9754C200.207 29.0363 198.989 27.5656 196.649 27.5656Z" fill="#FFFFFF"/>
</svg>
